Coordinates
version=1
nRows=16
nColumns=33
inDegrees=yes

Units are S.I. units (second, meters, Newtons, ...)
Angles are in degrees.

endheader
time	ground_thorax_rot_x	ground_thorax_rot_y	ground_thorax_rot_z	ground_thorax_tx	ground_thorax_ty	ground_thorax_tz	clav_prot_r	clav_elev_r	scapula_abduction_r	scapula_elevation_r	scapula_upward_rot_r	scapula_winging_r	shoulder_elv_r	plane_of_elev_r	axial_rot_r	elbow_flexion_r	pro_sup_r	wrist_flex_r	wrist_dev_r	clav_prot_l	clav_elev_l	scapula_abduction_l	scapula_elevation_l	scapula_upward_rot_l	scapula_winging_l	shoulder_elv_l	plane_of_elev_l	axial_rot_l	elbow_flexion_l	pro_sup_l	wrist_flex_l	wrist_dev_l
      6.46000000	     90.00000000	    -90.00000000	    -90.00000000	    -90.82939048	    850.11983129	    -40.96396992	    -45.00000000	     -6.77303786	    -31.45210809	      7.48723096	    -45.00000000	  -2269.09804148	  -1508.11499447	    146.07387549	    157.42429737	     -0.79644001	    160.36558378	     14.02369919	     14.71216496	     -0.84584777	     45.00000000	    -45.00000000	    -45.00000000	     20.29900059	  -3940.05711884	  -2414.85203695	     11.22201763	    -95.14235559	    350.68563963	   -320.17086587	     13.21705565	    -19.13810797
      6.47000000	     90.00000000	    -90.00000000	    -90.00000000	    -91.50744632	    852.00269713	    -41.21073532	    -45.00000000	     -7.55033708	    -31.29295671	      7.30916642	    -45.00000000	  -2269.30962045	  -1508.03186142	    145.90638501	    157.18102392	     -1.03962239	    160.14537719	     14.34157140	     14.75088656	     -0.90449900	     45.00000000	    -45.00000000	    -45.00000000	     20.29660138	  -3940.45195655	  -2414.82410149	     10.93324754	    -94.97057509	    350.61630779	   -320.21256173	     13.42531559	    -19.56375121
      6.48000000	     90.00000000	    -90.00000000	    -90.00000000	    -92.11478719	    853.78892994	    -41.45834806	    -45.00000000	     -7.49108939	    -31.42688632	      7.06746809	    -45.00000000	  -2269.26613325	  -1507.74614026	    145.98193594	    157.11627960	     -1.05055970	    160.07047004	     14.36771991	     14.84554458	     -0.97435589	     45.00000000	    -45.00000000	    -45.00000000	     20.32002539	  -3940.51580744	  -2414.84714931	     10.97455769	    -94.95644389	    350.64786604	   -320.22258266	     13.42769148	    -19.69600996
      6.49000000	     90.00000000	    -90.00000000	    -90.00000000	    -92.65117779	    855.46333970	    -41.70314920	    -45.00000000	     -7.39335542	    -31.26370732	      7.01902244	    -45.00000000	  -2269.27125816	  -1507.82736690	    146.07609280	    157.04361966	     -1.10741226	    160.00744464	     14.53814616	     14.83986372	     -1.08403256	     45.00000000	    -45.00000000	    -45.00000000	     20.27291034	  -3940.63298179	  -2414.78733461	     10.92173426	    -94.96294731	    350.62383131	   -320.19454663	     13.45478610	    -19.91227177
      6.50000000	     90.00000000	    -90.00000000	    -90.00000000	    -93.11916853	    857.01269083	    -41.94036493	    -45.00000000	     -7.51077521	    -31.37857973	      6.85933901	    -45.00000000	  -2269.27487515	  -1507.58390906	    146.06502364	    156.97352300	     -1.21435254	    160.04975531	     14.64091413	     14.92655156	     -1.13805079	     45.00000000	    -45.00000000	    -45.00000000	     20.26518076	  -3940.76863154	  -2414.81688007	     10.91474174	    -94.90560524	    350.61336383	   -320.12226421	     13.47767976	    -20.11924467
      6.51000000	     90.00000000	    -90.00000000	    -90.00000000	    -93.52908869	    858.43633437	    -42.16118003	    -45.00000000	     -7.27445957	    -31.25075961	      6.93571848	    -45.00000000	  -2269.19789003	  -1507.75797206	    146.16293478	    156.87005000	     -1.28292244	    160.11523901	     14.81549350	     14.89765078	     -1.22390617	     45.00000000	    -45.00000000	    -45.00000000	     20.21947464	  -3940.80154953	  -2414.75387961	     10.89518124	    -94.89395595	    350.61983071	   -319.99345613	     13.43830960	    -20.30439271
      6.52000000	     90.00000000	    -90.00000000	    -90.00000000	    -93.88220861	    859.71838169	    -42.36251244	    -45.00000000	     -7.23532483	    -31.23767535	      6.94857316	    -45.00000000	  -2269.14598906	  -1507.67989633	    146.17187918	    156.78237849	     -1.46587448	    160.29971114	     14.96849253	     14.94322824	     -1.27764424	     45.00000000	    -45.00000000	    -45.00000000	     20.21420064	  -3940.90558606	  -2414.77656301	     10.86486400	    -94.84141860	    350.58917123	   -319.79234110	     13.43962278	    -20.54009848
      6.53000000	     90.00000000	    -90.00000000	    -90.00000000	    -94.17733398	    860.83602134	    -42.54086455	    -45.00000000	     -7.12489906	    -31.23413359	      6.92408905	    -45.00000000	  -2269.15720583	  -1507.61260533	    146.19383082	    156.73990658	     -1.48106060	    160.53126126	     15.16118186	     14.95583516	     -1.32945485	     45.00000000	    -45.00000000	    -45.00000000	     20.17146037	  -3941.02685644	  -2414.69661065	     10.77729846	    -94.73554647	    350.56269135	   -319.56163490	     13.40667228	    -20.84207597
      6.54000000	     90.00000000	    -90.00000000	    -90.00000000	    -94.40567321	    861.75765493	    -42.69880959	    -45.00000000	     -6.85175230	    -31.24837149	      6.90831653	    -45.00000000	  -2269.08400452	  -1507.51612694	    146.28313284	    156.73447651	     -1.52142195	    160.86871497	     15.22280411	     14.96355498	     -1.36125481	     45.00000000	    -45.00000000	    -45.00000000	     20.17520923	  -3941.02148800	  -2414.72288964	     10.80075833	    -94.69508162	    350.53894239	   -319.26614101	     13.33859324	    -21.00217943
      6.55000000	     90.00000000	    -90.00000000	    -90.00000000	    -94.56768106	    862.47490947	    -42.83621330	    -45.00000000	     -6.67748899	    -31.19465378	      7.09127351	    -45.00000000	  -2269.05607163	  -1507.62094752	    146.26890496	    156.63874073	     -1.62968974	    161.21568462	     15.54242729	     14.91283222	     -1.40866518	     45.00000000	    -45.00000000	    -45.00000000	     20.10595105	  -3941.18246120	  -2414.63757224	     10.67963060	    -94.59628902	    350.49748913	   -318.95967238	     13.28866132	    -21.36577852
      6.56000000	     90.00000000	    -90.00000000	    -90.00000000	    -94.65601529	    862.97077134	    -42.95757578	    -45.00000000	     -6.36315163	    -31.22479685	      7.19635367	    -45.00000000	  -2268.92724904	  -1507.59102199	    146.33438386	    156.60730751	     -1.75617339	    161.72428376	     15.48013235	     14.92168485	     -1.41296913	     45.00000000	    -45.00000000	    -45.00000000	     20.12324360	  -3941.00844337	  -2414.69585389	     10.84718089	    -94.60685070	    350.56743500	   -318.60121663	     13.11383744	    -21.35198355
      6.57000000	     90.00000000	    -90.00000000	    -90.00000000	    -94.67251497	    863.24639794	    -43.06194267	    -45.00000000	     -6.15393114	    -31.20951968	      7.49269708	    -45.00000000	  -2268.94104201	  -1507.78775426	    146.25470303	    156.47315395	     -1.58501901	    162.12093407	     16.04385894	     14.69900924	     -1.43817334	     45.00000000	    -45.00000000	    -45.00000000	     20.09191202	  -3941.39728395	  -2414.61479256	     10.48038337	    -94.43583385	    350.43854996	   -318.28875779	     13.18820074	    -22.00514877
      6.58000000	     90.00000000	    -90.00000000	    -90.00000000	    -94.62195659	    863.32028370	    -43.15054893	    -45.00000000	     -5.91452256	    -31.23537955	      7.72890635	    -45.00000000	  -2268.78924764	  -1507.80716847	    146.28457783	    156.43936471	     -1.72603363	    162.83946944	     15.75651065	     14.74594248	     -1.42088088	     45.00000000	    -45.00000000	    -45.00000000	     20.08954664	  -3941.09113843	  -2414.65972331	     10.89975415	    -94.54765299	    350.57782553	   -317.87610336	     12.90035920	    -21.67234643
      6.59000000	     90.00000000	    -90.00000000	    -90.00000000	    -94.50941801	    863.22106541	    -43.22790150	    -45.00000000	     -5.38795200	    -31.27938994	      7.75694701	    -45.00000000	  -2268.78857509	  -1507.69737422	    146.33804751	    156.27187058	     -1.74655146	    163.31888023	     16.43276846	     14.60947174	     -1.43289523	     45.00000000	    -45.00000000	    -45.00000000	     20.06168391	  -3941.37217810	  -2414.54797201	     10.46069471	    -94.33909901	    350.46566320	   -317.61680421	     12.93848616	    -22.46114387
      6.60000000	     90.00000000	    -90.00000000	    -90.00000000	    -94.32945165	    862.94503533	    -43.29646620	    -45.00000000	     -5.22855434	    -31.17288397	      7.96817831	    -45.00000000	  -2268.69071316	  -1507.87986613	    146.50806773	    156.19989720	     -1.89424922	    164.11682852	     16.06680451	     14.65995923	     -1.38629528	     45.00000000	    -45.00000000	    -45.00000000	     20.06885816	  -3940.98837060	  -2414.60157480	     10.78372742	    -94.46102957	    350.62931491	   -317.19939415	     12.68263320	    -21.96235323
      6.61000000	     90.00000000	    -90.00000000	    -90.00000000	    -94.08917258	    862.51543230	    -43.35832113	    -45.00000000	     -4.69110735	    -31.30771444	      8.26894125	    -45.00000000	  -2268.64686143	  -1507.91186214	    146.44878192	    155.93488594	     -1.72522938	    164.63870495	     16.74346985	     14.42053507	     -1.39254580	     45.00000000	    -45.00000000	    -45.00000000	     19.98165841	  -3941.31130774	  -2414.49301262	     10.49232620	    -94.31172030	    350.46097952	   -316.95661424	     12.68974127	    -22.73442392
